<svg width="150" height="75" viewBox="0 0 150 75" fill="none" xmlns="http://www.w3.org/2000/svg">
<rect x="0.5" y="0.5" width="149" height="74" rx="5.5" fill="#222326"/>
<path d="M39.6399 45.3653C39.5398 45.1657 39.4547 44.9361 39.3847 44.6765C39.3146 44.417 39.2545 44.1424 39.2045 43.8529C38.9743 44.1025 38.709 44.3371 38.4088 44.5567C38.1085 44.7763 37.7732 44.971 37.4028 45.1407C37.0425 45.3004 36.6421 45.4252 36.2017 45.5151C35.7613 45.6149 35.2858 45.6648 34.7754 45.6648C33.9446 45.6648 33.1789 45.545 32.4782 45.3054C31.7876 45.0658 31.192 44.7314 30.6916 44.3022C30.1911 43.8729 29.8007 43.3638 29.5205 42.7748C29.2402 42.1759 29.1001 41.527 29.1001 40.8282C29.1001 39.1212 29.7357 37.8035 31.0069 36.8751C32.2881 35.9367 34.1948 35.4675 36.7272 35.4675H39.0544V34.5092C39.0544 33.7306 38.7991 33.1166 38.2886 32.6674C37.7782 32.2082 37.0425 31.9786 36.0816 31.9786C35.2308 31.9786 34.6102 32.1633 34.2199 32.5326C33.8295 32.892 33.6343 33.3762 33.6343 33.9851H29.4604C29.4604 33.2963 29.6106 32.6424 29.9108 32.0235C30.2211 31.4046 30.6665 30.8605 31.2471 30.3914C31.8376 29.9222 32.5533 29.5528 33.3941 29.2833C34.2449 29.0038 35.2158 28.864 36.3068 28.864C37.2877 28.864 38.1986 28.9838 39.0393 29.2234C39.8901 29.463 40.6258 29.8174 41.2464 30.2865C41.867 30.7557 42.3524 31.3497 42.7028 32.0684C43.0531 32.7772 43.2283 33.6008 43.2283 34.5391V41.4871C43.2283 42.3556 43.2833 43.0743 43.3934 43.6433C43.5035 44.2123 43.6637 44.7015 43.8739 45.1108V45.3653H39.6399ZM35.6612 42.4454C36.0816 42.4454 36.472 42.3955 36.8323 42.2957C37.1926 42.1958 37.5179 42.0661 37.8082 41.9063C38.0985 41.7466 38.3487 41.5669 38.5589 41.3673C38.7691 41.1576 38.9342 40.948 39.0544 40.7384V37.9532H36.9224C36.2718 37.9532 35.7162 38.0181 35.2558 38.1479C34.7954 38.2677 34.42 38.4424 34.1298 38.672C33.8395 38.8916 33.6243 39.1611 33.4842 39.4806C33.344 39.79 33.274 40.1294 33.274 40.4988C33.274 41.0578 33.4692 41.522 33.8595 41.8914C34.2599 42.2607 34.8605 42.4454 35.6612 42.4454Z" fill="white"/>
<path d="M57.7478 38C57.7478 49.8703 48.0982 59.5 36.1863 59.5C24.2745 59.5 14.6248 49.8703 14.6248 38C14.6248 26.1297 24.2745 16.5 36.1863 16.5C48.0982 16.5 57.7478 26.1297 57.7478 38Z" stroke="white" stroke-width="3"/>
<path d="M71.3454 30.6104H72.7229C73.2264 30.6104 73.6814 30.5384 74.0876 30.3945C74.4939 30.2507 74.8409 30.0496 75.1286 29.7915C75.4122 29.5376 75.6301 29.235 75.7824 28.8838C75.939 28.5326 76.0173 28.1496 76.0173 27.7349C76.0173 27.2905 75.939 26.8864 75.7824 26.5225C75.6301 26.1585 75.4122 25.8454 75.1286 25.583C74.8409 25.3249 74.4939 25.1239 74.0876 24.98C73.6814 24.8319 73.2264 24.7578 72.7229 24.7578H69.5617V34H71.3454V30.6104ZM71.3454 29.1631V26.2051H72.7229C72.9768 26.2051 73.1968 26.2453 73.383 26.3257C73.5692 26.4061 73.7258 26.5161 73.8527 26.6558C73.9755 26.7954 74.0665 26.9583 74.1257 27.1445C74.1892 27.3307 74.2209 27.5317 74.2209 27.7476C74.2209 27.9338 74.1892 28.1136 74.1257 28.2871C74.0665 28.4564 73.9755 28.6066 73.8527 28.7378C73.7258 28.869 73.5692 28.9727 73.383 29.0488C73.1968 29.125 72.9768 29.1631 72.7229 29.1631H71.3454ZM80.6511 34.127C81.3155 34.127 81.891 33.9979 82.3777 33.7397C82.8643 33.4816 83.2198 33.1938 83.4441 32.8765L82.5617 31.9243C82.3586 32.1867 82.0941 32.3835 81.7683 32.5146C81.4424 32.6458 81.106 32.7114 80.759 32.7114C80.5136 32.7114 80.2872 32.6733 80.0798 32.5972C79.8724 32.521 79.6884 32.4131 79.5276 32.2734C79.371 32.138 79.2461 31.9878 79.153 31.8228C79.0599 31.6535 78.9838 31.4313 78.9245 31.1562V31.1372H83.5837V30.3882C83.5837 29.8846 83.5139 29.4255 83.3742 29.0107C83.2346 28.5918 83.0315 28.2342 82.7649 27.938C82.494 27.6418 82.1639 27.4132 81.7746 27.2524C81.3895 27.0874 80.9494 27.0049 80.4543 27.0049C79.9761 27.0049 79.5339 27.0916 79.1277 27.2651C78.7214 27.4386 78.3702 27.682 78.0739 27.9951C77.7777 28.3083 77.5471 28.6828 77.382 29.1187C77.217 29.5503 77.1345 30.0285 77.1345 30.5532V30.8071C77.1345 31.2684 77.217 31.7021 77.382 32.1084C77.5513 32.5104 77.7904 32.8595 78.0993 33.1558C78.4083 33.4562 78.7785 33.6932 79.2102 33.8667C79.6418 34.0402 80.1221 34.127 80.6511 34.127ZM80.4416 28.4331C80.6659 28.4331 80.8627 28.4691 81.0319 28.541C81.2055 28.6087 81.3514 28.7018 81.4699 28.8203C81.5884 28.943 81.6815 29.0869 81.7492 29.252C81.8169 29.417 81.8508 29.5926 81.8508 29.7788V29.9185H78.9563C78.9986 29.6942 79.0621 29.491 79.1467 29.3091C79.2313 29.1271 79.3371 28.9705 79.4641 28.8394C79.5868 28.7082 79.7307 28.6087 79.8957 28.541C80.0608 28.4691 80.2427 28.4331 80.4416 28.4331ZM90.0583 27.0049C89.5971 27.0049 89.1718 27.117 88.7824 27.3413C88.3931 27.5614 88.0588 27.866 87.7795 28.2554L87.7668 28.103L87.697 27.1318H86.0529V34H87.8176V29.874C87.898 29.6794 87.9996 29.5101 88.1223 29.3662C88.245 29.2223 88.3931 29.1038 88.5666 29.0107C88.7105 28.9303 88.8734 28.8711 89.0554 28.833C89.2416 28.7907 89.4489 28.7695 89.6775 28.7695C89.8975 28.7695 90.1281 28.7843 90.3694 28.814C90.6148 28.8394 90.8539 28.8796 91.0866 28.9346L91.3469 27.1763C91.2072 27.134 91.0232 27.0959 90.7946 27.062C90.5704 27.0239 90.3249 27.0049 90.0583 27.0049ZM94.0319 27.1318H92.5149V34H94.1208V28.8584C94.142 28.8034 94.1652 28.7526 94.1906 28.7061C94.216 28.6595 94.2457 28.6193 94.2795 28.5854C94.3261 28.5389 94.379 28.5029 94.4382 28.4775C94.4974 28.4521 94.5652 28.4395 94.6413 28.4395C94.709 28.4395 94.7725 28.45 94.8318 28.4712C94.891 28.4881 94.9439 28.5199 94.9904 28.5664C95.0328 28.613 95.0666 28.6785 95.092 28.7632C95.1174 28.8478 95.1301 28.9557 95.1301 29.0869V34H96.6853V28.9346C96.6853 28.8838 96.6853 28.8436 96.6853 28.814C96.6853 28.7843 96.6853 28.7653 96.6853 28.7568C96.7064 28.7103 96.7318 28.6701 96.7614 28.6362C96.7911 28.5981 96.8249 28.5643 96.863 28.5347C96.9096 28.505 96.9582 28.4818 97.009 28.4648C97.064 28.4479 97.1254 28.4395 97.1931 28.4395C97.2566 28.4395 97.3179 28.45 97.3772 28.4712C97.4406 28.4881 97.4957 28.5199 97.5422 28.5664C97.5888 28.6172 97.6247 28.6849 97.6501 28.7695C97.6797 28.8542 97.6945 28.9621 97.6945 29.0933V34H99.3005V29.0996C99.3005 28.7188 99.2624 28.3971 99.1862 28.1348C99.1143 27.8682 99.0127 27.6502 98.8816 27.481C98.7461 27.3159 98.5874 27.1953 98.4055 27.1191C98.2277 27.043 98.0352 27.0049 97.8278 27.0049C97.6628 27.0049 97.5105 27.026 97.3708 27.0684C97.2312 27.1107 97.1063 27.1699 96.9963 27.2461C96.9074 27.3053 96.8249 27.3773 96.7487 27.4619C96.6768 27.5423 96.6112 27.6333 96.552 27.7349C96.5139 27.6291 96.4673 27.536 96.4123 27.4556C96.3615 27.3709 96.3002 27.299 96.2282 27.2397C96.1351 27.1593 96.0251 27.1001 95.8982 27.062C95.7712 27.0239 95.6273 27.0049 95.4665 27.0049C95.1364 27.0049 94.855 27.0916 94.6223 27.2651C94.3938 27.4344 94.2139 27.6672 94.0827 27.9634L94.0319 27.1318ZM105.032 34H106.822V33.8921C106.734 33.7186 106.666 33.5112 106.619 33.27C106.573 33.0288 106.55 32.7241 106.55 32.356V29.4106C106.55 29.0129 106.475 28.6637 106.327 28.3633C106.179 28.0586 105.974 27.8068 105.712 27.6079C105.449 27.409 105.138 27.2588 104.779 27.1572C104.423 27.0557 104.038 27.0049 103.623 27.0049C103.162 27.0049 102.752 27.0641 102.392 27.1826C102.036 27.2969 101.736 27.4535 101.49 27.6523C101.241 27.8512 101.05 28.0819 100.919 28.3442C100.792 28.6066 100.729 28.8838 100.729 29.1758H102.493C102.493 29.0531 102.51 28.9409 102.544 28.8394C102.582 28.7378 102.639 28.651 102.716 28.5791C102.8 28.4987 102.91 28.4373 103.046 28.395C103.181 28.3485 103.342 28.3252 103.528 28.3252C103.74 28.3252 103.924 28.3527 104.08 28.4077C104.241 28.4585 104.374 28.5326 104.48 28.6299C104.582 28.723 104.658 28.8351 104.709 28.9663C104.759 29.0933 104.785 29.2371 104.785 29.3979V29.8042H103.801C103.293 29.8042 102.842 29.8507 102.449 29.9438C102.06 30.0327 101.732 30.1639 101.465 30.3374C101.169 30.5278 100.947 30.7712 100.799 31.0674C100.65 31.3594 100.576 31.6958 100.576 32.0767C100.576 32.3729 100.636 32.6479 100.754 32.9019C100.873 33.1515 101.038 33.3674 101.249 33.5493C101.461 33.7313 101.713 33.873 102.005 33.9746C102.301 34.0762 102.625 34.127 102.976 34.127C103.192 34.127 103.393 34.1058 103.579 34.0635C103.765 34.0254 103.936 33.9704 104.093 33.8984C104.245 33.8307 104.385 33.7503 104.512 33.6572C104.639 33.5641 104.751 33.4647 104.848 33.3589C104.87 33.4816 104.895 33.598 104.925 33.708C104.954 33.818 104.99 33.9154 105.032 34ZM103.35 32.7622C103.185 32.7622 103.039 32.7432 102.912 32.7051C102.79 32.6628 102.686 32.6077 102.601 32.54C102.517 32.4681 102.451 32.3813 102.405 32.2798C102.362 32.174 102.341 32.0597 102.341 31.937C102.341 31.7804 102.371 31.6366 102.43 31.5054C102.489 31.37 102.58 31.2536 102.703 31.1562C102.826 31.0632 102.984 30.9912 103.179 30.9404C103.374 30.8854 103.608 30.8579 103.884 30.8579H104.785V32.0386C104.734 32.1274 104.664 32.2163 104.575 32.3052C104.487 32.3898 104.381 32.466 104.258 32.5337C104.135 32.6014 103.998 32.6564 103.845 32.6987C103.693 32.741 103.528 32.7622 103.35 32.7622ZM108.549 34H110.32V29.1187C110.379 29.0256 110.445 28.9409 110.517 28.8647C110.589 28.7886 110.669 28.723 110.758 28.668C110.868 28.5918 110.993 28.5347 111.133 28.4966C111.276 28.4585 111.433 28.4395 111.602 28.4395C111.805 28.4395 111.987 28.4606 112.148 28.5029C112.309 28.541 112.446 28.6108 112.561 28.7124C112.675 28.814 112.762 28.9536 112.821 29.1313C112.884 29.3049 112.916 29.527 112.916 29.7979V34H114.681V29.7725C114.681 29.2731 114.622 28.8499 114.503 28.5029C114.389 28.1517 114.228 27.8639 114.021 27.6396C113.809 27.4196 113.559 27.2588 113.272 27.1572C112.984 27.0557 112.667 27.0049 112.32 27.0049C112.049 27.0049 111.793 27.043 111.551 27.1191C111.31 27.1953 111.088 27.3053 110.885 27.4492C110.766 27.5339 110.654 27.6291 110.549 27.7349C110.443 27.8407 110.345 27.957 110.257 28.084L110.149 27.1318H108.549V34ZM119.689 34.127C120.354 34.127 120.929 33.9979 121.416 33.7397C121.902 33.4816 122.258 33.1938 122.482 32.8765L121.6 31.9243C121.397 32.1867 121.132 32.3835 120.806 32.5146C120.481 32.6458 120.144 32.7114 119.797 32.7114C119.552 32.7114 119.325 32.6733 119.118 32.5972C118.911 32.521 118.726 32.4131 118.566 32.2734C118.409 32.138 118.284 31.9878 118.191 31.8228C118.098 31.6535 118.022 31.4313 117.963 31.1562V31.1372H122.622V30.3882C122.622 29.8846 122.552 29.4255 122.412 29.0107C122.273 28.5918 122.07 28.2342 121.803 27.938C121.532 27.6418 121.202 27.4132 120.813 27.2524C120.428 27.0874 119.988 27.0049 119.492 27.0049C119.014 27.0049 118.572 27.0916 118.166 27.2651C117.759 27.4386 117.408 27.682 117.112 27.9951C116.816 28.3083 116.585 28.6828 116.42 29.1187C116.255 29.5503 116.173 30.0285 116.173 30.5532V30.8071C116.173 31.2684 116.255 31.7021 116.42 32.1084C116.589 32.5104 116.828 32.8595 117.137 33.1558C117.446 33.4562 117.817 33.6932 118.248 33.8667C118.68 34.0402 119.16 34.127 119.689 34.127ZM119.48 28.4331C119.704 28.4331 119.901 28.4691 120.07 28.541C120.244 28.6087 120.39 28.7018 120.508 28.8203C120.627 28.943 120.72 29.0869 120.787 29.252C120.855 29.417 120.889 29.5926 120.889 29.7788V29.9185H117.994C118.037 29.6942 118.1 29.491 118.185 29.3091C118.269 29.1271 118.375 28.9705 118.502 28.8394C118.625 28.7082 118.769 28.6087 118.934 28.541C119.099 28.4691 119.281 28.4331 119.48 28.4331ZM124.164 34H125.935V29.1187C125.995 29.0256 126.06 28.9409 126.132 28.8647C126.204 28.7886 126.284 28.723 126.373 28.668C126.483 28.5918 126.608 28.5347 126.748 28.4966C126.892 28.4585 127.048 28.4395 127.217 28.4395C127.421 28.4395 127.603 28.4606 127.763 28.5029C127.924 28.541 128.062 28.6108 128.176 28.7124C128.29 28.814 128.377 28.9536 128.436 29.1313C128.5 29.3049 128.531 29.527 128.531 29.7979V34H130.296V29.7725C130.296 29.2731 130.237 28.8499 130.118 28.5029C130.004 28.1517 129.843 27.8639 129.636 27.6396C129.424 27.4196 129.175 27.2588 128.887 27.1572C128.599 27.0557 128.282 27.0049 127.935 27.0049C127.664 27.0049 127.408 27.043 127.167 27.1191C126.926 27.1953 126.703 27.3053 126.5 27.4492C126.382 27.5339 126.27 27.6291 126.164 27.7349C126.058 27.8407 125.961 27.957 125.872 28.084L125.764 27.1318H124.164V34ZM135.209 25.4497H133.445V27.1318H131.877V28.4331H133.445V31.5562C133.445 32.009 133.504 32.3983 133.622 32.7241C133.741 33.0457 133.91 33.3102 134.13 33.5176C134.346 33.7292 134.606 33.8857 134.911 33.9873C135.22 34.0846 135.563 34.1333 135.939 34.1333C136.134 34.1333 136.331 34.1227 136.53 34.1016C136.733 34.0846 136.927 34.0592 137.113 34.0254C137.3 33.9915 137.475 33.9492 137.64 33.8984C137.805 33.8434 137.949 33.7799 138.072 33.708L137.901 32.4956C137.82 32.5168 137.723 32.5379 137.609 32.5591C137.499 32.5802 137.38 32.5993 137.253 32.6162C137.122 32.6374 136.984 32.6543 136.841 32.667C136.701 32.6797 136.563 32.686 136.428 32.686C136.242 32.686 136.072 32.6649 135.92 32.6226C135.772 32.5802 135.645 32.5083 135.539 32.4067C135.433 32.3094 135.351 32.1782 135.292 32.0132C135.237 31.8439 135.209 31.6344 135.209 31.3848V28.4331H137.774V27.1318H135.209V25.4497ZM69.2044 45.8522V45.9722C69.2044 46.4254 69.2691 46.8443 69.3986 47.229C69.5281 47.6099 69.7185 47.9412 69.9699 48.223C70.2174 48.5049 70.5221 48.7258 70.884 48.8857C71.2496 49.0419 71.6647 49.12 72.1294 49.12C72.5902 49.12 73.0015 49.0419 73.3633 48.8857C73.7252 48.7258 74.0298 48.5049 74.2774 48.223C74.525 47.9412 74.7135 47.6099 74.843 47.229C74.9725 46.8443 75.0372 46.4254 75.0372 45.9722V45.8522C75.0372 45.4028 74.9725 44.9876 74.843 44.6068C74.7135 44.2221 74.525 43.8889 74.2774 43.607C74.026 43.3252 73.7194 43.1043 73.3576 42.9443C72.9958 42.7844 72.5826 42.7044 72.1179 42.7044C71.6533 42.7044 71.2401 42.7844 70.8782 42.9443C70.5202 43.1043 70.2174 43.3252 69.9699 43.607C69.7185 43.8889 69.5281 44.2221 69.3986 44.6068C69.2691 44.9876 69.2044 45.4028 69.2044 45.8522ZM70.7925 45.9722V45.8522C70.7925 45.6008 70.8173 45.3628 70.8668 45.1381C70.9163 44.9134 70.9944 44.7153 71.101 44.5439C71.2077 44.3726 71.3448 44.2374 71.5124 44.1383C71.6799 44.0393 71.8818 43.9898 72.1179 43.9898C72.3579 43.9898 72.5616 44.0393 72.7292 44.1383C72.8968 44.2374 73.0339 44.3726 73.1405 44.5439C73.2434 44.7153 73.3195 44.9134 73.3691 45.1381C73.4186 45.3628 73.4433 45.6008 73.4433 45.8522V45.9722C73.4433 46.2312 73.4186 46.4749 73.3691 46.7034C73.3195 46.9281 73.2434 47.1243 73.1405 47.2918C73.0339 47.4632 72.8968 47.5984 72.7292 47.6975C72.5616 47.7965 72.3617 47.846 72.1294 47.846C71.8894 47.846 71.6838 47.7965 71.5124 47.6975C71.3448 47.5984 71.2077 47.4632 71.101 47.2918C70.9944 47.1243 70.9163 46.9281 70.8668 46.7034C70.8173 46.4749 70.7925 46.2312 70.7925 45.9722ZM76.4483 49H78.0422V44.6068C78.0955 44.523 78.1546 44.4468 78.2193 44.3783C78.284 44.3097 78.3564 44.2507 78.4364 44.2012C78.5354 44.1326 78.6478 44.0812 78.7735 44.0469C78.9029 44.0126 79.0439 43.9955 79.1962 43.9955C79.379 43.9955 79.5428 44.0146 79.6875 44.0526C79.8322 44.0869 79.956 44.1498 80.0589 44.2412C80.1617 44.3326 80.2398 44.4583 80.2931 44.6182C80.3502 44.7744 80.3788 44.9743 80.3788 45.2181V49H81.967V45.1952C81.967 44.7458 81.9136 44.3649 81.807 44.0526C81.7042 43.7365 81.5594 43.4775 81.3728 43.2757C81.1824 43.0776 80.9577 42.9329 80.6987 42.8415C80.4397 42.7501 80.1541 42.7044 79.8418 42.7044C79.598 42.7044 79.3676 42.7387 79.1505 42.8072C78.9334 42.8758 78.7335 42.9748 78.5506 43.1043C78.444 43.1805 78.3431 43.2662 78.2479 43.3614C78.1527 43.4566 78.0651 43.5613 77.9851 43.6756L77.888 42.8187H76.4483V49ZM94.5353 47.2633L95.0209 49H96.7119L94.0383 40.682H92.5815L89.8565 49H91.5475L92.0388 47.2633H94.5353ZM92.433 45.8979L93.307 42.8358L94.1583 45.8979H92.433ZM101.968 42.7044C101.553 42.7044 101.17 42.8053 100.819 43.0072C100.469 43.2052 100.168 43.4794 99.9169 43.8298L99.9054 43.6927L99.8426 42.8187H98.363V49H99.9511V45.2866C100.024 45.1114 100.115 44.9591 100.225 44.8296C100.336 44.7001 100.469 44.5935 100.625 44.5097C100.755 44.4373 100.901 44.384 101.065 44.3497C101.233 44.3116 101.419 44.2926 101.625 44.2926C101.823 44.2926 102.031 44.3059 102.248 44.3326C102.469 44.3554 102.684 44.3916 102.893 44.4411L103.128 42.8586C103.002 42.8206 102.836 42.7863 102.63 42.7558C102.429 42.7215 102.208 42.7044 101.968 42.7044ZM105.013 49H106.407L107.064 45.6979L107.189 45.0695L107.321 45.6979L108.001 49H109.395L110.503 42.8187H109.046L108.589 46.4635L108.509 47.0633L108.401 46.4749L107.732 42.8187H106.669L106.001 46.492L105.893 47.0805L105.818 46.492L105.356 42.8187H103.904L105.013 49ZM114.582 49.1143C115.18 49.1143 115.698 48.9981 116.136 48.7658C116.574 48.5334 116.894 48.2745 117.096 47.9888L116.301 47.1319C116.119 47.368 115.881 47.5451 115.587 47.6632C115.294 47.7813 114.991 47.8403 114.679 47.8403C114.458 47.8403 114.254 47.806 114.068 47.7375C113.881 47.6689 113.715 47.5718 113.571 47.4461C113.43 47.3242 113.317 47.189 113.234 47.0405C113.15 46.8881 113.081 46.6882 113.028 46.4406V46.4235H117.221V45.7494C117.221 45.2961 117.158 44.8829 117.033 44.5097C116.907 44.1326 116.724 43.8108 116.484 43.5442C116.24 43.2776 115.943 43.0719 115.593 42.9272C115.246 42.7787 114.85 42.7044 114.405 42.7044C113.974 42.7044 113.576 42.7825 113.211 42.9386C112.845 43.0948 112.529 43.3138 112.262 43.5956C111.996 43.8774 111.788 44.2145 111.64 44.6068C111.491 44.9953 111.417 45.4256 111.417 45.8979V46.1264C111.417 46.5416 111.491 46.9319 111.64 47.2976C111.792 47.6594 112.007 47.9736 112.285 48.2402C112.563 48.5106 112.897 48.7239 113.285 48.88C113.674 49.0362 114.106 49.1143 114.582 49.1143ZM114.393 43.9898C114.595 43.9898 114.772 44.0222 114.925 44.0869C115.081 44.1479 115.212 44.2316 115.319 44.3383C115.425 44.4487 115.509 44.5782 115.57 44.7268C115.631 44.8753 115.662 45.0333 115.662 45.2009V45.3266H113.057C113.095 45.1248 113.152 44.9419 113.228 44.7782C113.304 44.6144 113.399 44.4735 113.514 44.3554C113.624 44.2374 113.753 44.1479 113.902 44.0869C114.051 44.0222 114.214 43.9898 114.393 43.9898ZM122.471 49H124.082V48.9029C124.002 48.7467 123.941 48.5601 123.9 48.343C123.858 48.1259 123.837 47.8517 123.837 47.5204V44.8696C123.837 44.5116 123.77 44.1974 123.637 43.927C123.503 43.6527 123.319 43.4261 123.083 43.2471C122.846 43.0681 122.567 42.9329 122.243 42.8415C121.923 42.7501 121.576 42.7044 121.203 42.7044C120.788 42.7044 120.419 42.7577 120.095 42.8644C119.775 42.9672 119.504 43.1081 119.284 43.2871C119.059 43.4661 118.887 43.6737 118.769 43.9098C118.655 44.1459 118.598 44.3954 118.598 44.6582H120.186C120.186 44.5478 120.201 44.4468 120.232 44.3554C120.266 44.264 120.318 44.1859 120.386 44.1212C120.462 44.0488 120.561 43.9936 120.683 43.9555C120.805 43.9136 120.95 43.8927 121.117 43.8927C121.308 43.8927 121.474 43.9174 121.614 43.9669C121.759 44.0126 121.879 44.0793 121.974 44.1669C122.066 44.2507 122.134 44.3516 122.18 44.4697C122.226 44.5839 122.249 44.7134 122.249 44.8582V45.2238H121.363C120.906 45.2238 120.5 45.2657 120.146 45.3495C119.796 45.4294 119.501 45.5475 119.261 45.7037C118.994 45.875 118.794 46.094 118.661 46.3606C118.528 46.6234 118.461 46.9262 118.461 47.269C118.461 47.5356 118.514 47.7832 118.621 48.0117C118.728 48.2364 118.876 48.4306 119.066 48.5944C119.257 48.7582 119.484 48.8857 119.746 48.9771C120.013 49.0686 120.304 49.1143 120.62 49.1143C120.815 49.1143 120.996 49.0952 121.163 49.0571C121.331 49.0229 121.485 48.9733 121.626 48.9086C121.763 48.8477 121.889 48.7753 122.003 48.6915C122.117 48.6077 122.218 48.5182 122.306 48.423C122.325 48.5334 122.348 48.6382 122.374 48.7372C122.401 48.8362 122.433 48.9238 122.471 49ZM120.957 47.886C120.809 47.886 120.678 47.8688 120.563 47.8346C120.453 47.7965 120.359 47.747 120.283 47.686C120.207 47.6213 120.148 47.5432 120.106 47.4518C120.068 47.3566 120.049 47.2538 120.049 47.1433C120.049 47.0024 120.076 46.8729 120.129 46.7548C120.182 46.633 120.264 46.5282 120.375 46.4406C120.485 46.3568 120.628 46.2921 120.803 46.2464C120.978 46.1969 121.19 46.1721 121.437 46.1721H122.249V47.2347C122.203 47.3147 122.14 47.3947 122.06 47.4747C121.98 47.5508 121.885 47.6194 121.774 47.6803C121.664 47.7413 121.54 47.7908 121.403 47.8289C121.266 47.8669 121.117 47.886 120.957 47.886ZM127.602 49H129.093L131.441 42.8187H129.784L128.43 47.1776L128.344 47.6118L128.259 47.1776L126.899 42.8187H125.242L127.602 49ZM135.662 49.1143C136.26 49.1143 136.778 48.9981 137.216 48.7658C137.654 48.5334 137.974 48.2745 138.176 47.9888L137.382 47.1319C137.199 47.368 136.961 47.5451 136.668 47.6632C136.375 47.7813 136.072 47.8403 135.76 47.8403C135.539 47.8403 135.335 47.806 135.148 47.7375C134.962 47.6689 134.796 47.5718 134.651 47.4461C134.51 47.3242 134.398 47.189 134.314 47.0405C134.23 46.8881 134.162 46.6882 134.109 46.4406V46.4235H138.302V45.7494C138.302 45.2961 138.239 44.8829 138.113 44.5097C137.988 44.1326 137.805 43.8108 137.565 43.5442C137.321 43.2776 137.024 43.0719 136.674 42.9272C136.327 42.7787 135.931 42.7044 135.485 42.7044C135.055 42.7044 134.657 42.7825 134.291 42.9386C133.926 43.0948 133.61 43.3138 133.343 43.5956C133.076 43.8774 132.869 44.2145 132.72 44.6068C132.572 44.9953 132.497 45.4256 132.497 45.8979V46.1264C132.497 46.5416 132.572 46.9319 132.72 47.2976C132.873 47.6594 133.088 47.9736 133.366 48.2402C133.644 48.5106 133.977 48.7239 134.366 48.88C134.754 49.0362 135.186 49.1143 135.662 49.1143ZM135.474 43.9898C135.676 43.9898 135.853 44.0222 136.005 44.0869C136.161 44.1479 136.293 44.2316 136.399 44.3383C136.506 44.4487 136.59 44.5782 136.651 44.7268C136.712 44.8753 136.742 45.0333 136.742 45.2009V45.3266H134.137C134.175 45.1248 134.232 44.9419 134.308 44.7782C134.385 44.6144 134.48 44.4735 134.594 44.3554C134.705 44.2374 134.834 44.1479 134.983 44.0869C135.131 44.0222 135.295 43.9898 135.474 43.9898Z" fill="white"/>
<rect x="0.5" y="0.5" width="149" height="74" rx="5.5" stroke="black"/>
</svg>
