<svg width="126" height="141" viewBox="0 0 126 141" fill="none" xmlns="http://www.w3.org/2000/svg">
<path d="M79.301 64.294L89.606 46.809L117.382 90.071L117.395 98.371L117.304 41.24C117.272 40.5509 117.074 39.8797 116.728 39.283C116.381 38.6864 115.896 38.1819 115.314 37.812L65.307 9.04901C64.7095 8.76513 64.0559 8.61935 63.3944 8.62247C62.733 8.62558 62.0807 8.77752 61.486 9.06702C61.3316 9.14439 61.182 9.23087 61.038 9.32601L60.864 9.43601L12.323 37.564L12.134 37.649C11.8824 37.7655 11.6423 37.9055 11.417 38.067C10.5066 38.7171 9.88622 39.6971 9.68799 40.798C9.65764 40.965 9.63693 41.1336 9.62598 41.303L9.70198 87.859L35.574 47.759C38.831 42.442 45.928 40.729 52.516 40.822L60.248 41.022L14.688 114.086L20.059 117.178L66.165 41.095L86.544 41.021L40.557 119.021L59.723 130.051L62.013 131.368C63.0008 131.761 64.0974 131.782 65.1 131.429L115.81 102.042L106.11 107.66L79.301 64.294ZM83.233 120.921L63.877 90.542L75.692 70.493L101.112 110.559L83.233 120.921Z" fill="#2D374B"/>
<path d="M63.877 90.542L83.233 120.92L101.113 110.558L75.694 70.493L63.877 90.542Z" fill="#28A0F0"/>
<path d="M117.398 98.372L117.385 90.072L89.609 46.81L79.298 64.293L106.112 107.659L115.812 102.041C116.282 101.66 116.666 101.185 116.939 100.646C117.213 100.107 117.369 99.5158 117.399 98.912L117.398 98.372Z" fill="#28A0F0"/>
<path d="M1 106.202L14.691 114.091L60.251 41.027L52.519 40.827C45.931 40.734 38.834 42.446 35.577 47.764L9.705 87.864L1.005 101.237V106.206L1 106.202Z" fill="white"/>
<path d="M86.546 41.026L66.168 41.1L20.062 117.183L36.177 126.462L40.559 119.029L86.546 41.026Z" fill="white"/>
<path d="M125.982 40.921C125.889 38.818 125.285 36.7692 124.224 34.9513C123.162 33.1333 121.675 31.6009 119.889 30.486L69.227 1.35201C67.4184 0.463256 65.4301 0.00111389 63.415 0.00111389C61.3999 0.00111389 59.4116 0.463256 57.603 1.35201C57.18 1.56501 8.33499 29.894 8.33499 29.894C7.65634 30.2199 7.00724 30.604 6.39499 31.042C4.80896 32.1699 3.49913 33.6425 2.56386 35.3491C1.62859 37.0558 1.0922 38.9523 0.994995 40.896V101.234L9.69499 87.861L9.62799 41.307C9.66869 40.6688 9.85044 40.0475 10.1601 39.4879C10.4698 38.9283 10.8998 38.4444 11.419 38.071C11.649 37.906 61.328 9.15001 61.486 9.07101C62.0807 8.78152 62.733 8.62958 63.3944 8.62647C64.0559 8.62335 64.7096 8.76913 65.307 9.05301L115.314 37.818C115.896 38.1879 116.381 38.6924 116.728 39.289C117.074 39.8857 117.272 40.5569 117.304 41.246V98.918C117.292 99.5159 117.152 100.104 116.895 100.644C116.637 101.184 116.267 101.662 115.809 102.047L106.109 107.665L101.109 110.565L83.229 120.927L65.096 131.436C64.0935 131.79 62.9968 131.768 62.009 131.375L40.556 119.036L36.174 126.468L55.454 137.568C56.092 137.93 56.66 138.252 57.126 138.514C57.848 138.914 58.34 139.189 58.513 139.273C60.126 139.98 61.8699 140.339 63.631 140.326C65.2461 140.328 66.8472 140.027 68.351 139.438L121.018 108.938C122.504 107.782 123.718 106.315 124.576 104.639C125.433 102.963 125.912 101.119 125.98 99.238L125.982 40.921Z" fill="#96BEDC"/>
</svg>
